<svg width="12" height="12" viewBox="0 0 12 12" fill="none" xmlns="http://www.w3.org/2000/svg">
<g clip-path="url(#clip0_643_2337)">
<path d="M5.68501 0.975616C3.09439 0.975616 0.986755 3.08325 0.986755 5.67387C0.986755 8.26449 3.09439 10.3721 5.68501 10.3721C8.27563 10.3721 10.3833 8.26449 10.3833 5.67387C10.3833 3.08325 8.27563 0.975616 5.68501 0.975616ZM4.74583 7.74721L3.33375 6.33817C3.15016 6.15498 3.14979 5.85767 3.33292 5.67402C3.51616 5.49026 3.8137 5.48992 3.99736 5.67326L4.74489 6.41949L6.89998 4.2644C7.08343 4.08095 7.38086 4.08095 7.56431 4.2644C7.74777 4.44785 7.74777 4.74528 7.56431 4.92873L4.74583 7.74721Z" fill="#2FAB73"/>
</g>
<defs>
<clipPath id="clip0_643_2337">
<rect width="11.2758" height="11.2758" fill="white" transform="translate(0.0467529 0.0360107)"/>
</clipPath>
</defs>
</svg>
