<svg width="7" height="7" viewBox="0 0 7 7" fill="none" xmlns="http://www.w3.org/2000/svg">
<path d="M3.17499 4.7442C3.13805 4.74427 3.10146 4.73705 3.06732 4.72295C3.03318 4.70885 3.00216 4.68815 2.97604 4.66203L1.78234 3.46804C1.75544 3.4421 1.73398 3.41107 1.71921 3.37675C1.70444 3.34243 1.69665 3.30551 1.6963 3.26814C1.69595 3.23078 1.70304 3.19372 1.71717 3.15913C1.73129 3.12453 1.75217 3.0931 1.77857 3.06666C1.80497 3.04022 1.83638 3.0193 1.87095 3.00513C1.90552 2.99096 1.94257 2.98381 1.97993 2.98411C2.0173 2.98441 2.05423 2.99214 2.08857 3.00686C2.12291 3.02159 2.15398 3.043 2.17996 3.06986L3.17471 4.06461L4.96583 2.27406C5.01859 2.22126 5.09017 2.19158 5.16482 2.19155C5.23947 2.19152 5.31107 2.22115 5.36387 2.27392C5.41667 2.32668 5.44635 2.39826 5.44638 2.47291C5.4464 2.54756 5.41677 2.61916 5.36401 2.67196L3.37394 4.66203C3.34782 4.68815 3.3168 4.70885 3.28266 4.72295C3.24852 4.73705 3.21193 4.74427 3.17499 4.7442Z" fill="#2FAB73"/>
</svg>
